<svg xmlns="http://www.w3.org/2000/svg" xmlns:xlink="http://www.w3.org/1999/xlink" width="250" height="54" viewBox="0 0 250 54" version="1.1">
  <g stroke="none" stroke-width="1" fill="none" fill-rule="evenodd">
    <g transform="translate(-130.000000, -73.000000)">
      <g transform="translate(130.000000, 73.000000)">
        <rect stroke="#221D21" stroke-width="1" fill="#221D21" x="0.5" y="0.5" width="249" height="53" rx="10"/>
        <text font-family="Helvetica-Bold, Helvetica" font-size="9" font-weight="bold" fill="#EEF2FF">
          <tspan x="53" y="20">PRODUCT HUNT</tspan>
        </text>
        <text font-family="Helvetica-Bold, Helvetica" font-size="16" font-weight="bold" fill="#EEF2FF">
          <tspan x="52" y="40">#1 Product of the Month</tspan>
        </text>
        
        <g transform="translate(16.000000, 13.000000)"><g><polygon fill="#E3C101" points="10.424 17.26 13.333 17.26 13.333 26.205 10.424 26.205"/><polygon fill="#FFDA75" points="10.424 17.26 11.424 17.26 11.424 26.205 10.424 26.205"/><path d="M10.424,17.26 L10.424,21.082 C10.943392,21.3474935 11.4990019,21.5351677 12.073,21.639 C12.409,21.696 12.661,22.053 12.664,22.478 L12.664,26.202 L13.334,26.202 L13.334,17.26 L10.424,17.26 Z" fill="#D4B507"/><path d="M18.327,17.63 L15.632,17.63 L15.632,15.207 L18.327,15.207 C20.254,15.204 21.816,13.254 21.818,10.847 L21.818,8.545 C21.818,8.211 21.601,7.94 21.333,7.94 L17.971,7.94 L17.971,5.517 L21.333,5.517 C22.673,5.517 23.758,6.873 23.758,8.545 L23.758,10.847 C23.754,14.591 21.325,17.625 18.328,17.63 L18.327,17.63 Z" fill="#F0CD0A"/><path d="M22.919,6.262 C23.646,7.312 23.515,8.192 23.515,10.544 C23.511,13.557 21.92,16.207 19.605,17.054 C19.401,17.129 19.18,17.062 19.026,16.878 C18.8676306,16.6763321 18.8061704,16.4151265 18.858,16.164 C18.926,15.82 18.978,15.471 19.011,15.119 C18.56,15.231 18.562,15.204 15.631,15.204 L15.631,17.627 L18.327,17.627 C21.325,17.627 23.757,14.592 23.757,10.847 C23.757,8.621 23.949,7.38 22.919,6.262 Z" fill="#E7C60F"/><path d="M8.124,17.63 L5.43,17.63 C2.433,17.625 0.004,14.59 0,10.847 L0,8.545 C0,6.873 1.085,5.517 2.424,5.517 L5.787,5.517 L5.787,7.94 L2.424,7.94 C2.156,7.94 1.939,8.21 1.939,8.545 L1.939,10.847 C1.942,13.254 3.503,15.204 5.43,15.207 L8.124,15.207 L8.124,17.63 Z" fill="#F0CD0A"/><path d="M5.544,5.517 L5.544,7.637 L4.802,7.637 L4.819,5.517 L4.606,6.965 C4.552,7.35 4.284,7.631 3.971,7.631 L2.18,7.631 C1.913,7.631 1.696,7.902 1.696,8.236 C1.696,10.535 1.483,12.218 2.847,13.763 C2.265,12.966 1.941,11.926 1.938,10.847 L1.938,8.545 C1.938,8.211 2.155,7.94 2.423,7.94 L5.786,7.94 L5.786,5.517 L5.543,5.517 L5.544,5.517 Z" fill="#D1B208"/><polygon fill="#F69652" points="5.045 5.517 6.045 5.517 6.045 7.939 5.045 7.939"/><path d="M5.166,15.192 C5.245,15.709 5.362,16.216 5.516,16.706 C5.559,16.843 5.546,16.996 5.479,17.118 C5.413,17.24 5.303,17.312 5.185,17.312 C3.805,17.312 2.476,16.654 1.472,15.471 C3.345,17.96 5.35,17.615 8.122,17.615 L8.122,15.192 C5.091,15.207 5.411,15.213 5.166,15.192 Z" fill="#D0B208"/><path d="M18.938,2.513 L4.82,2.513 L4.82,12.446 C4.82,17.316 7.982,21.265 11.881,21.265 C15.781,21.265 18.941,17.316 18.941,12.445 L18.939,2.513 L18.938,2.513 Z" fill="#E3C101"/><path d="M21.09,7.637 L20.121,7.637 C19.653,7.637 19.257,7.207 19.191,6.629 L19.064,5.517 L17.971,5.517 L17.971,7.94 C21.588,7.94 21.384,7.91 21.532,7.994 C21.454,7.777 21.282,7.637 21.091,7.637 L21.09,7.637 Z" fill="#E7C510"/><path d="M5.27,12.446 L5.27,2.513 L4.82,2.513 L4.82,12.446 C4.82,14.833 5.594,17.119 6.967,18.78 C8.34,20.44 10.194,21.335 12.104,21.257 C8.296,21.105 5.271,17.205 5.27,12.446 Z" fill="#FCD707"/><path d="M18.002,2.513 L18.002,4.31 L5.27,4.31 L17.02,5.119 C17.567,5.163 17.991,5.731 17.99,6.415 L17.99,12.447 C17.99,17.084 15.115,20.928 11.41,21.243 C13.36,21.406 15.276,20.552 16.703,18.885 C18.129,17.218 18.938,14.887 18.938,12.447 L18.938,2.513 L18.002,2.513 Z" fill-opacity="0.2" fill="#FFFFFF"/><rect fill="#E3C101" x="4.121" y="0" width="15.515" height="4.306" rx="1.2"/><path d="M19.217,0.215 C19.437,0.615 19.389,0.775 19.389,2.785 C19.389,3.455 18.955,3.997 18.419,3.997 C3.716,3.997 4.649,4.088 4.293,3.782 C4.693,4.506 3.983,4.306 18.667,4.306 C19.202,4.306 19.637,3.764 19.637,3.095 C19.637,1.178 19.745,0.669 19.217,0.215 Z" fill="#D2B309"/><path d="M17.913,29.07 L5.845,29.07 C5.645,29.07 5.459,28.939 5.355,28.725 C5.25030919,28.5037763 5.24305575,28.2488178 5.335,28.022 L6.97,24.11 C7.167,23.637 7.559,23.341 7.985,23.34 L15.77,23.34 C16.196,23.341 16.588,23.637 16.785,24.11 L18.425,28.022 C18.5172379,28.2491087 18.5099826,28.5044941 18.405,28.726 C18.3,28.94 18.114,29.071 17.913,29.07 Z" fill="#333333"/><path d="M5.47,28.022 L7.103,24.11 C7.301,23.637 7.692,23.341 8.119,23.34 C7.609,23.34 7.207,23.54 6.969,24.11 L5.333,28.022 C5.24105575,28.2488178 5.24830919,28.5037763 5.353,28.725 C5.456,28.939 5.642,29.07 5.843,29.07 L5.976,29.07 C5.776,29.068 5.591,28.937 5.487,28.723 C5.38382742,28.5023436 5.37730431,28.2486673 5.469,28.023 L5.47,28.022 Z" fill="#4D4D4D"/><path d="M18.424,28.022 L16.788,24.11 C16.59,23.637 16.198,23.341 15.772,23.34 L7.988,23.34 L15.375,24.095 C15.736,24.132 16.055,24.405 16.213,24.812 L17.207,27.38 C17.279992,27.5665696 17.2742189,27.774762 17.191,27.957 C17.108,28.134 16.959,28.247 16.795,28.255 L5.845,29.07 L17.913,29.07 C18.113,29.07 18.3,28.94 18.405,28.726 C18.5099826,28.5044941 18.5172379,28.2491087 18.425,28.022 L18.424,28.022 Z" fill="#1F1F1F"/><path d="M18.667,0 L5.09,0 C4.554,0 4.12,0.542 4.12,1.211 L4.12,3.095 L4.47,1.008 C4.523,0.68 4.751,0.442 5.02,0.433 L18.667,0 Z" fill="#FFDA75"/></g><path d="M16,11 C16,13.209139 14.209139,15 12,15 C9.790861,15 8,13.209139 8,11 C8,8.790861 9.790861,7 12,7 C14.209139,7 16,8.790861 16,11" fill="#DC5324" opacity="0.662"/><path d="M12.476,11.125 L11.373,11.125 L11.373,9.947 L12.476,9.947 C12.798,9.947 13.059,10.211 13.059,10.537 C13.0601075,10.8602508 12.7992485,11.123347 12.476,11.125 M12.476,9.162 L10.595,9.162 L10.595,13.088 L11.373,13.088 L11.373,11.91 L12.476,11.91 C13.228,11.91 13.838,11.295 13.838,10.536 C13.838,9.777 13.228,9.162 12.476,9.162" fill="#FFFFFF" fill-rule="nonzero"/></g>
      </g>
    </g>
  </g>
</svg>